{"title":"The Fall Of The Essex Boys 2013 DVDRip XViD -juggs","uid":8158273,"size":742374275,"categoryP":"video","categoryS":"movies","magnet":"?xt=urn:btih:582c4302f0ba39168e770950545d06ac9d1f6551&amp;dn=The+Fall+Of+The+Essex+Boys+2013+DVDRip+XViD+-juggs&amp;tr=udp%3A%2F%2Ftracker.openbittorrent.com%3A80&amp;tr=udp%3A%2F%2Fopen.demonii.com%3A1337&amp;tr=udp%3A%2F%2Ftracker.coppersurfer.tk%3A6969&amp;tr=udp%3A%2F%2Fexodus.desync.com%3A6969","seeders":1,"leechers":1,"uploader":"juggs99","files":3,"time":1361201056,"description":" &lt;a href=&quot;http://img585.imageshack.us/img585/4387/thefalloftheessexboys.jpg&quot; rel=&quot;nofollow&quot; target=&quot;_NEW&quot;&gt;http://img585.imageshack.us/img585/4387/thefalloftheessexboys.jpg&lt;/a&gt;\n\n\nSource : DVDR L-S\n\n\nFormat : AVI\nFormat/Info : Audio Video Interleave\nFile size : 702 MiB\nDuration : 1h 27mn\nOverall bit rate : 1 126 Kbps\nWriting library : VirtualDub build 32842/release\n\nVideo\nID : 0\nFormat : MPEG-4 Visual\nFormat profile : Advanced Simple@L5\nFormat settings, BVOP : 4\nFormat settings, QPel : No\nFormat settings, GMC : No warppoints\nFormat settings, Matrix : Default (H.263)\nMuxing mode : Packed bitstream\nCodec ID : XVID\nCodec ID/Hint : XviD\nDuration : 1h 27mn\nBit rate : 988 Kbps\nWidth : 640 pixels\nHeight : 256 pixels\nDisplay aspect ratio : 2.500\nFrame rate : 25.000 fps\nColor space : YUV\nChroma subsampling : 4:2:0\nBit depth : 8 bits\nScan type : Progressive\nCompression mode : Lossy\nBits/(Pixel*Frame) : 0.241\nStream size : 616 MiB (88%)\nWriting library : XviD 64\n\nAudio\nID : 1\nFormat : MPEG Audio\nFormat version : Version 1\nFormat profile : Layer 3\nCodec ID : 55\nCodec ID/Hint : MP3\nDuration : 1h 27mn\nBit rate mode : Constant\nBit rate : 128 Kbps\nChannel(s) : 2 channels\nSampling rate : 44.1 KHz\nCompression mode : Lossy\nStream size : 79.8 MiB (11%)\nAlignment : Split accross interleaves\nInterleave, duration : 40 ms (1.00 video frame)\nInterleave, preload duration : 500 ms\nWriting library : LAME3.99r\n\nPlot\nThe rise and fall of the Essex Boys gang - the drugs, the violence and, of course, the murders. The real story is the most shocking of all.\n\n\n &lt;a href=&quot;\nhttp://img37.imageshack.us/img37/134/juggs.png&quot; rel=&quot;nofollow&quot; target=&quot;_NEW&quot;&gt;\nhttp://img37.imageshack.us/img37/134/juggs.png&lt;/a&gt; &lt;a href=&quot;\nhttp://img541.imageshack.us/img541/1481/juggs1.png&quot; rel=&quot;nofollow&quot; target=&quot;_NEW&quot;&gt;\nhttp://img541.imageshack.us/img541/1481/juggs1.png&lt;/a&gt; &lt;a href=&quot;\nhttp://img10.imageshack.us/img10/4527/juggs2.png&quot; rel=&quot;nofollow&quot; target=&quot;_NEW&quot;&gt;\nhttp://img10.imageshack.us/img10/4527/juggs2.png&lt;/a&gt;","torrent":{"xt":"urn:btih:582c4302f0ba39168e770950545d06ac9d1f6551","amp;dn":"The+Fall+Of+The+Essex+Boys+2013+DVDRip+XViD+-juggs","amp;tr":["udp%3A%2F%2Ftracker.openbittorrent.com%3A80","udp%3A%2F%2Fopen.demonii.com%3A1337","udp%3A%2F%2Ftracker.coppersurfer.tk%3A6969","udp%3A%2F%2Fexodus.desync.com%3A6969"],"infoHash":"582c4302f0ba39168e770950545d06ac9d1f6551","infoHashBuffer":{"type":"Buffer","data":[88,44,67,2,240,186,57,22,142,119,9,80,84,93,6,172,157,31,101,81]},"announce":[],"urlList":[]}}